<?xml version="1.0" standalone="no"?>
<!DOCTYPE svg PUBLIC "-//W3C//DTD SVG 20010904//EN"
 "http://www.w3.org/TR/2001/REC-SVG-20010904/DTD/svg10.dtd">
<svg version="1.0" xmlns="http://www.w3.org/2000/svg"
 width="574.000000pt" height="574.000000pt" viewBox="0 0 574.000000 574.000000"
 preserveAspectRatio="xMidYMid meet">

<g transform="translate(0.000000,574.000000) scale(0.100000,-0.100000)"
fill="#000000" stroke="none">
<path d="M2635 5724 c-529 -56 -982 -218 -1380 -492 -672 -464 -1101 -1159
-1222 -1977 -25 -170 -25 -601 0 -770 97 -654 385 -1221 848 -1670 439 -426
983 -691 1604 -782 169 -24 590 -25 765 0 616 87 1169 355 1609 782 461 446
752 1020 848 1670 25 170 25 600 0 770 -97 654 -385 1221 -848 1670 -437 424
-992 694 -1599 780 -110 16 -533 28 -625 19z m465 -904 c351 -44 657 -165 945
-375 80 -58 375 -345 375 -365 0 -6 9 -21 21 -33 38 -40 127 -183 179 -285 90
-180 148 -355 187 -562 25 -135 25 -525 0 -660 -60 -323 -174 -588 -365 -850
-71 -97 -295 -321 -392 -392 -264 -192 -525 -304 -850 -365 -74 -13 -148 -17
-330 -17 -182 0 -256 4 -330 17 -325 61 -586 172 -845 362 -101 74 -325 297
-397 395 -191 262 -305 527 -365 850 -25 135 -25 525 0 660 60 323 174 588
365 850 72 98 296 321 397 395 280 205 592 330 931 374 99 12 375 13 474 1z"/>
<path d="M2037 4203 c-4 -3 -7 -17 -7 -30 0 -13 -38 -81 -83 -151 -46 -70
-154 -234 -240 -365 -145 -219 -157 -241 -157 -283 0 -25 7 -61 16 -79 18 -39
71 -70 105 -62 13 3 36 9 52 13 l27 6 0 -671 0 -671 -45 0 -45 0 0 -105 0
-105 1210 0 1210 0 0 105 0 105 -45 0 -45 0 0 671 0 671 23 -5 c74 -19 81 -19
113 -2 41 22 64 69 64 128 0 50 14 27 -349 577 -78 119 -141 224 -141 237 l0
23 -828 0 c-456 0 -832 -3 -835 -7z m53 -89 c0 -9 -74 -163 -165 -341 -160
-315 -166 -327 -172 -401 -8 -94 -29 -122 -93 -122 -65 0 -90 32 -90 115 l0
65 231 350 c215 326 233 350 260 350 20 0 29 -5 29 -16z m370 8 c0 -10 -2 -17
-121 -377 -76 -229 -94 -295 -99 -364 -6 -75 -9 -86 -34 -107 -36 -32 -86 -32
-123 0 -26 23 -28 29 -27 98 1 71 5 83 145 415 l144 342 58 1 c31 0 57 -4 57
-8z m310 -34 c0 -24 -11 -187 -25 -363 -14 -176 -25 -344 -25 -373 0 -69 -29
-102 -90 -102 -30 0 -47 6 -65 25 -43 42 -35 120 47 512 l72 343 43 0 43 0 0
-42z m358 -300 c82 -392 90 -471 47 -513 -47 -48 -137 -26 -149 37 -5 29 -57
742 -56 786 0 31 1 32 43 32 l43 0 72 -342z m412 -1 c142 -335 145 -343 145
-415 0 -68 -2 -75 -28 -98 -37 -31 -87 -32 -123 -1 -25 21 -28 33 -34 113 -4
49 -13 102 -19 118 -14 35 -201 612 -201 620 0 3 26 6 58 6 l57 -1 145 -342z
m399 -7 l231 -350 0 -65 c0 -82 -25 -115 -87 -115 -71 0 -103 47 -103 150 0
38 -24 94 -165 371 -91 180 -165 334 -165 343 0 11 9 16 29 16 27 0 45 -24
260 -350z m-1858 -533 c53 -39 130 -18 169 45 l18 30 16 -30 c23 -44 54 -62
107 -62 41 0 51 4 78 35 17 20 31 40 31 45 0 6 5 10 10 10 6 0 10 -7 10 -16 0
-8 13 -29 29 -45 25 -24 38 -29 79 -29 45 0 53 4 81 35 17 20 31 42 31 50 0
27 18 16 25 -15 9 -41 53 -70 105 -70 52 0 96 29 105 70 8 37 21 39 29 4 19
-76 129 -102 187 -45 16 16 29 37 29 45 0 23 17 20 25 -4 12 -37 63 -70 109
-70 51 0 83 21 103 69 l15 36 17 -34 c46 -97 164 -98 213 -2 l17 33 15 -35 c8
-19 25 -43 39 -51 33 -22 90 -23 122 -2 20 13 26 14 30 4 3 -7 4 -301 3 -653
l-3 -640 -1055 0 -1055 0 -2 648 c-1 435 1 647 8 647 6 0 20 -5 31 -11 30 -16
85 -13 114 6 14 9 32 33 40 52 l15 35 17 -33 c9 -18 29 -41 43 -52z"/>
<path d="M2060 2655 l0 -325 395 0 395 0 0 325 0 325 -395 0 -395 0 0 -325z
m360 0 l0 -255 -150 0 -150 0 0 255 0 255 150 0 150 0 0 -255z m370 0 l0 -255
-150 0 -150 0 0 255 0 255 150 0 150 0 0 -255z"/>
<path d="M3180 2505 l0 -475 295 0 295 0 0 475 0 475 -295 0 -295 0 0 -475z
m518 407 c9 -7 12 -96 10 -413 l-3 -404 -227 -3 -228 -2 0 409 c0 318 3 410
13 414 20 9 421 7 435 -1z"/>
<path d="M3315 2455 l0 -85 33 0 32 0 0 85 0 85 -32 0 -33 0 0 -85z"/>
</g>
</svg>
