<svg width="45" height="44" xmlns="http://www.w3.org/2000/svg" xmlns:xlink="http://www.w3.org/1999/xlink" overflow="hidden"><defs><clipPath id="clip0"><rect x="53" y="105" width="45" height="44"/></clipPath></defs><g clip-path="url(#clip0)" transform="translate(-53 -105)"><path d="M39.4167 32.5417 38.0417 33.9167 6.41667 33.9167 4.58333 32.0833 4.58333 22.9167 6.41667 21.0833 38.0417 21.0833 39.4167 22.4583 39.4167 32.5417ZM1.83333 18.3333 1.83333 36.6667 42.1667 36.6667 42.1667 18.3333 1.83333 18.3333Z" fill="#002060" transform="matrix(1.02273 0 0 1 53 105)"/><path d="M25.6667 27.5C25.6667 30.0313 24.025 32.0833 22 32.0833 19.975 32.0833 18.3333 30.0313 18.3333 27.5 18.3333 24.9687 19.975 22.9167 22 22.9167 24.025 22.9167 25.6667 24.9687 25.6667 27.5Z" fill="#002060" transform="matrix(1.02273 0 0 1 53 105)"/><path d="M11.9167 27.5C11.9167 28.2594 11.3011 28.875 10.5417 28.875 9.78228 28.875 9.16667 28.2594 9.16667 27.5 9.16667 26.7406 9.78228 26.125 10.5417 26.125 11.3011 26.125 11.9167 26.7406 11.9167 27.5Z" fill="#002060" transform="matrix(1.02273 0 0 1 53 105)"/><path d="M34.8333 27.5C34.8333 28.2594 34.2177 28.875 33.4583 28.875 32.6989 28.875 32.0833 28.2594 32.0833 27.5 32.0833 26.7406 32.6989 26.125 33.4583 26.125 34.2177 26.125 34.8333 26.7406 34.8333 27.5Z" fill="#002060" transform="matrix(1.02273 0 0 1 53 105)"/><path d="M30.2042 9.4875 30.8917 11.2292 33.6417 10.6792 31.7167 5.86667 7.05833 15.95 21.175 13.1542Z" fill="#002060" transform="matrix(1.02273 0 0 1 53 105)"/><path d="M27.8208 16.5 35.0625 15.0792 35.3833 16.5 38.1792 16.5 37.2625 11.825 13.75 16.5Z" fill="#002060" transform="matrix(1.02273 0 0 1 53 105)"/></g></svg>